<svg xmlns="http://www.w3.org/2000/svg" viewBox="0 0 134 134">
<style>
polygon, path {
fill: black;
}
@media (prefers-color-scheme: dark) {
polygon, path {
  fill: white;
}
}
</style>
<polygon points="104.7,46.9 104.7,97.8 40.4,97.8 40.4,98.7 40.4,112 104.7,112 109.7,112 121.9,112 121.9,46.9 "/>
<path d="M81.5,57c4-3.7,6-9,6-15.8c0-6.2-1.9-11-5.8-14.4c-3.9-3.4-9.7-5.1-17.4-5.1h-4.6v0H29H11.8V35v47.7H29V62.5l11.4,0
  l21.8,20.2h25.3L65.6,62.5C72.4,62.3,77.7,60.5,81.5,57z M29,35h30.8v0H64c4.6,0,6.9,2.1,6.9,6.2c0,2.5-0.7,4.4-2.2,5.8
  s-3.4,2.1-5.9,2.1H29V35z"/>
</svg>