<?xml version="1.0" encoding="utf-8"?>
<!-- Generator: Adobe Illustrator 24.0.1, SVG Export Plug-In . SVG Version: 6.00 Build 0)  -->
<svg version="1.1" id="logo" xmlns="http://www.w3.org/2000/svg" xmlns:xlink="http://www.w3.org/1999/xlink" x="0px" y="0px"
	 viewBox="0 0 512 512" style="enable-background:new 0 0 512 512;" xml:space="preserve">
<style type="text/css">
	.logo-r,.logo-l{fill:#FFFFFF;}
</style>
<polygon class="logo-r" points="432,163 432,400 133,400 133,404 133,466 432,466 455,466 512,466 512,163 "/>
<path class="logo-l" d="M324.2,209.95c18.71-17.29,28.07-41.79,28.07-73.53c0-28.88-9-51.15-27-66.82c-18-15.67-44.94-23.5-80.81-23.5
	H223V46H80H0v62v222h80v-94.09l52.78-0.01L234.24,330h117.64l-101.58-94.21C281.93,234.85,306.56,226.24,324.2,209.95z M80,108h143
	v0.06h19.71c21.24,0,31.86,9.59,31.86,28.75c0,11.4-3.4,20.33-10.2,26.81c-6.8,6.48-15.96,9.71-27.49,9.71H80V108z"/>
</svg>
